<svg width="49" height="36" viewBox="0 0 49 36" fill="none" xmlns="http://www.w3.org/2000/svg">
<path d="M0.317188 32.552C2.62119 32.552 4.30119 32.184 5.35719 31.448C6.41319 30.712 6.94119 29.48 6.94119 27.752C6.94119 25.768 6.12519 22.6 4.49319 18.248C6.12519 13.896 6.94119 10.712 6.94119 8.696C6.94119 6.936 6.41319 5.688 5.35719 4.952C4.30119 4.216 2.62119 3.848 0.317188 3.848V1.4C4.15719 1.688 7.72519 1.832 11.0212 1.832C14.3172 1.832 17.8852 1.688 21.7252 1.4V3.848C19.4212 3.848 17.7412 4.216 16.6852 4.952C15.6292 5.688 15.1012 6.936 15.1012 8.696C15.1012 10.712 15.9172 13.896 17.5492 18.248C15.9172 22.6 15.1012 25.768 15.1012 27.752C15.1012 29.48 15.6292 30.712 16.6852 31.448C17.7412 32.184 19.4212 32.552 21.7252 32.552V35C17.8852 34.712 14.3172 34.568 11.0212 34.568C7.72519 34.568 4.15719 34.712 0.317188 35V32.552ZM38.3009 35.432C35.3569 35.432 33.0849 34.456 31.4849 32.504C29.9169 30.552 29.1169 27.672 29.0849 23.864H28.0289C27.9969 24.312 27.9809 24.952 27.9809 25.784C27.9809 27.384 28.1249 28.936 28.4129 30.44C28.7329 31.912 29.2769 33.512 30.0449 35.24V35.336H24.3809L24.8609 22.424H30.1889C30.2849 25.24 30.9729 27.288 32.2529 28.568C33.5329 29.816 35.1009 30.44 36.9569 30.44C38.5569 30.44 39.7889 30.024 40.6529 29.192C41.5489 28.328 41.9969 27.224 41.9969 25.88C41.9969 23.064 40.1089 21.352 36.3329 20.744C32.6849 20.168 29.9649 19.064 28.1729 17.432C26.3809 15.768 25.4849 13.48 25.4849 10.568C25.4849 8.584 25.8689 6.872 26.6369 5.432C27.4369 3.992 28.5089 2.888 29.8529 2.12C31.1969 1.352 32.7009 0.967998 34.3649 0.967998C39.8369 0.967998 42.4769 4.504 42.2849 11.576H43.2929C43.3249 9.464 43.2129 7.64 42.9569 6.104C42.7329 4.568 42.3169 2.904 41.7089 1.112V1.016H46.5569L46.0769 12.632H41.2289C41.1329 10.264 40.5249 8.552 39.4049 7.496C38.3169 6.44 36.9729 5.912 35.3729 5.912C34.1249 5.912 33.1329 6.28 32.3969 7.016C31.6609 7.72 31.2929 8.664 31.2929 9.848C31.2929 11.16 31.7249 12.248 32.5889 13.112C33.4529 13.976 35.0049 14.6 37.2449 14.984C40.9889 15.624 43.7889 16.792 45.6449 18.488C47.5009 20.184 48.4289 22.44 48.4289 25.256C48.4289 27.496 47.9329 29.384 46.9409 30.92C45.9489 32.456 44.6849 33.592 43.1489 34.328C41.6129 35.064 39.9969 35.432 38.3009 35.432Z" fill="black"/>
</svg>
